<mxfile host="65bd71144e">
    <diagram id="ZjIbt0ZXIwbJ4BmFo_Hf" name="Page-1">
        <mxGraphModel dx="669" dy="471" grid="1" gridSize="10" guides="1" tooltips="1" connect="1" arrows="1" fold="1" page="1" pageScale="1" pageWidth="850" pageHeight="1100" math="0" shadow="0">
            <root>
                <mxCell id="0"/>
                <mxCell id="1" parent="0"/>
                <mxCell id="14" value="UPLOAD PHOTO" style="rounded=0;whiteSpace=wrap;html=1;strokeColor=none;" vertex="1" parent="1">
                    <mxGeometry x="240" y="190" width="120" height="60" as="geometry"/>
                </mxCell>
                <mxCell id="2" value="PHOTO" style="ellipse;whiteSpace=wrap;html=1;aspect=fixed;" parent="1" vertex="1">
                    <mxGeometry x="240" y="80" width="120" height="120" as="geometry"/>
                </mxCell>
                <mxCell id="3" value="&amp;lt; NAV /&amp;gt;" style="rounded=0;whiteSpace=wrap;html=1;" parent="1" vertex="1">
                    <mxGeometry width="600" height="60" as="geometry"/>
                </mxCell>
                <mxCell id="6" value="AGE" style="rounded=0;whiteSpace=wrap;html=1;" parent="1" vertex="1">
                    <mxGeometry x="140" y="280" width="150" height="30" as="geometry"/>
                </mxCell>
                <mxCell id="7" value="NAME" style="rounded=0;whiteSpace=wrap;html=1;" parent="1" vertex="1">
                    <mxGeometry x="140" y="240" width="150" height="30" as="geometry"/>
                </mxCell>
                <mxCell id="8" value="UPDATE" style="rounded=0;whiteSpace=wrap;html=1;" parent="1" vertex="1">
                    <mxGeometry x="145" y="430" width="140" height="40" as="geometry"/>
                </mxCell>
                <mxCell id="9" value="LOGOUT" style="rounded=0;whiteSpace=wrap;html=1;" parent="1" vertex="1">
                    <mxGeometry x="520" y="10" width="60" height="40" as="geometry"/>
                </mxCell>
                <mxCell id="10" value="SPACE BOOK" style="rounded=0;whiteSpace=wrap;html=1;strokeColor=none;" parent="1" vertex="1">
                    <mxGeometry x="10" y="10" width="80" height="40" as="geometry"/>
                </mxCell>
                <mxCell id="12" value="VIEW PROFILE" style="rounded=0;whiteSpace=wrap;html=1;" parent="1" vertex="1">
                    <mxGeometry x="400" y="10" width="110" height="40" as="geometry"/>
                </mxCell>
                <mxCell id="13" value="VIEW ALL USERS" style="rounded=0;whiteSpace=wrap;html=1;" parent="1" vertex="1">
                    <mxGeometry x="100" y="10" width="120" height="40" as="geometry"/>
                </mxCell>
                <mxCell id="15" value="&amp;lt;TEXTAREA&amp;gt;" style="rounded=0;whiteSpace=wrap;html=1;" vertex="1" parent="1">
                    <mxGeometry x="310" y="240" width="120" height="30" as="geometry"/>
                </mxCell>
                <mxCell id="16" value="&amp;lt;TEXTAREA&amp;gt;(number)" style="rounded=0;whiteSpace=wrap;html=1;" vertex="1" parent="1">
                    <mxGeometry x="310" y="280" width="120" height="30" as="geometry"/>
                </mxCell>
                <mxCell id="17" value="FAVORITE PLANET" style="rounded=0;whiteSpace=wrap;html=1;" vertex="1" parent="1">
                    <mxGeometry x="140" y="320" width="150" height="30" as="geometry"/>
                </mxCell>
                <mxCell id="18" value="&amp;lt;TEXTAREA&amp;gt;" style="rounded=0;whiteSpace=wrap;html=1;" vertex="1" parent="1">
                    <mxGeometry x="310" y="320" width="120" height="30" as="geometry"/>
                </mxCell>
                <mxCell id="19" value="DELETE PROFILE" style="rounded=0;whiteSpace=wrap;html=1;" vertex="1" parent="1">
                    <mxGeometry x="285" y="430" width="140" height="40" as="geometry"/>
                </mxCell>
                <mxCell id="20" value="BIO" style="rounded=0;whiteSpace=wrap;html=1;" vertex="1" parent="1">
                    <mxGeometry x="140" y="360" width="290" height="60" as="geometry"/>
                </mxCell>
            </root>
        </mxGraphModel>
    </diagram>
</mxfile>